<?xml version="1.0" encoding="utf-8"?>
<!-- Generator: Adobe Illustrator 28.0.0, SVG Export Plug-In . SVG Version: 6.00 Build 0)  -->
<svg version="1.1" id="Layer_1" xmlns="http://www.w3.org/2000/svg" xmlns:xlink="http://www.w3.org/1999/xlink" x="0px" y="0px"
	 viewBox="0 0 3238.9 1805.3" style="enable-background:new 0 0 3238.9 1805.3;" xml:space="preserve">
<style type="text/css">
	.st0{fill:#FFFFFF;}
	.st1{fill:#FCC2D7;}
	.st2{fill:none;stroke:#1E1E1E;stroke-width:6;stroke-linecap:round;stroke-miterlimit:12;}
	.st3{fill:#1E1E1E;}
	.st4{font-family:'Helvetica';}
	.st5{font-size:60px;}
	.st6{fill:#A5D8FF;}
	.st7{fill:#EADDD7;}
	.st8{fill:none;stroke:#1E1E1E;stroke-width:3;stroke-linecap:round;stroke-miterlimit:12;}
	.st9{font-size:48px;}
	.st10{fill:#D0BFFF;}
	.st11{fill:#E3FAFC;}
</style>
<rect class="st0" width="3238.9" height="1805.3"/>
<g transform="translate(308.1728667138128 202.529716178218) rotate(0 65.515625 62.576171875)">
	<path class="st1" d="M710.2,405.1c79,4.6,149.6,8.2,205.3,0c68.2-2.7,84.1,41.8,93.9,93.9c-5.4,73.4-6.3,121,0,187.7
		c-5.6,51.8-34.4,87.2-93.9,93.9c-70,6.6-121.3-2.2-205.3,0c-69.7-4.8-87.2-38.8-93.9-93.9c4.4-75.5,5.8-149.5,0-187.7
		C621.7,432,649.8,412.3,710.2,405.1"/>
	<path class="st2" d="M710.2,405.1c65.9,6.6,121.4,0.4,205.3,0 M710.2,405.1c56.7,1.9,108.1,0.7,205.3,0 M915.6,405.1
		c64.6,4.8,90.2,33.5,93.9,93.9 M915.6,405.1c57.3,1,87.7,36.9,93.9,93.9 M1009.4,498.9c-1.3,44-5.1,88.8,0,187.7 M1009.4,498.9
		c-2.9,44.3,2.6,87.3,0,187.7 M1009.4,686.6c-1.4,66-30.9,92.6-93.9,93.9 M1009.4,686.6c3.3,56.5-30.4,94.9-93.9,93.9 M915.6,780.5
		c-82.4-4.6-147.2,1.4-205.3,0 M915.6,780.5c-74.4-3.6-145.8-3.6-205.3,0 M710.2,780.5c-62.4,4.6-98.6-30.4-93.9-93.9 M710.2,780.5
		c-60.5,0.2-97.8-32.8-93.9-93.9 M616.3,686.6c6.6-67-4.4-140.1,0-187.7 M616.3,686.6c-1.6-66.2-1.9-129.4,0-187.7 M616.3,498.9
		c1.9-65.6,37.3-88.3,93.9-93.9 M616.3,498.9c1.4-67.5,33-89.2,93.9-93.9"/>
</g>
<g transform="translate(326.4472807763128 242.105888053218) rotate(0 47.2412109375 23)">
	<text transform="matrix(1 0 0 1 700.0283 534.6959)" class="st3 st4 st5">Tiptap</text>
	<text transform="matrix(1 0 0 1 640.5849 603.6959)" class="st3 st4 st5">Text Editor</text>
</g>
<g>
	<g transform="translate(440.2041167138128 263.9439462440846) rotate(0 247.580078125 0.7008393837890026)">
		<path class="st2" d="M880.4,527.9c247.6,0.7,1237.9,3.5,1485.5,4.2 M880.4,527.9c247.6,0.7,1237.9,3.5,1485.5,4.2"/>
	</g>
	<g transform="translate(440.2041167138128 263.9439462440846) rotate(0 247.580078125 0.7008393837890026)">
		<path class="st2" d="M2281.2,562.6c24-8.6,48-17.3,84.7-30.5 M2281.2,562.6c26-9.4,51.9-18.7,84.7-30.5"/>
	</g>
	<g transform="translate(440.2041167138128 263.9439462440846) rotate(0 247.580078125 0.7008393837890026)">
		<path class="st2" d="M2281.4,501.1c23.9,8.8,47.9,17.6,84.5,31 M2281.4,501.1c25.9,9.5,51.8,19,84.5,31"/>
	</g>
</g>
<g transform="translate(936.7627104638128 210.201591178218) rotate(0 64.44140625 63.33984375)">
	<path class="st6" d="M1968.5,420.4c67.3,3.8,153.9,1,196.6,0c60.8,5.9,95.1,21.6,95,95c5.1,79.7,5.6,141.7,0,190
		c9.5,58.2-37.3,103.3-95,95c-59.2,5.2-97-10.7-196.6,0c-65.5,2.2-92.1-40.4-95-95c5.2-43.5,2.8-97,0-190
		C1882,444.4,1895.3,423,1968.5,420.4"/>
	<path class="st2" d="M1968.5,420.4c47.8-0.5,108-2.6,196.6,0 M1968.5,420.4c56.4-0.8,111.9,0.1,196.6,0 M2165.2,420.4
		c57.8-2.9,97.4,34,95,95 M2165.2,420.4c63.1-4.8,92.4,28,95,95 M2260.2,515.4c-3.2,52,6.3,101.9,0,190 M2260.2,515.4
		c-0.2,54.4-0.5,105.2,0,190 M2260.2,705.4c1,66.7-27.5,93.3-95,95 M2260.2,705.4c-0.6,69.5-25,96.3-95,95 M2165.2,800.4
		c-62.1,4.7-118.1,4.2-196.6,0 M2165.2,800.4c-54.4,0.9-108.1-0.3-196.6,0 M1968.5,800.4c-57.8,6-95.9-29.9-95-95 M1968.5,800.4
		c-59.6-6.5-93.2-35.8-95-95 M1873.5,705.4c0-53.9-1.3-112.7,0-190 M1873.5,705.4c-1.3-60.7,0.4-127.1,0-190 M1873.5,515.4
		c-0.7-66.9,26.4-90.9,95-95 M1873.5,515.4c-4.1-58.5,25.1-89.8,95-95"/>
</g>
<g transform="translate(972.8593901513128 262.041434928218) rotate(0 28.3447265625 11.5)">
	<text transform="matrix(1 0 0 1 1947.6387 570.7935)" class="st3 st4 st5">spaCy</text>
</g>
<g transform="translate(554.4228667138128 225.75939558594632) rotate(0 119.583984375 16.5)">
	<path class="st7" d="M1133.6,451.5c255.5,0,511.1,0,668,0c16.5,0,24.8,8.2,24.8,24.8c0,19.6,0,39.2,0,49.5
		c0,16.5-8.2,24.8-24.8,24.8c-185.8,0-371.6,0-668,0c-16.5,0-24.8-8.2-24.8-24.8c0-18.6,0-37.2,0-49.5
		C1108.8,459.8,1117.1,451.5,1133.6,451.5"/>
	<path class="st8" d="M1133.6,451.5c180.3,0,360.6,0,668,0 M1133.6,451.5c218.2,0,436.4,0,668,0 M1801.6,451.5
		c16.5,0,24.8,8.2,24.8,24.8 M1801.6,451.5c16.5,0,24.8,8.2,24.8,24.8 M1826.4,476.3c0,19.4,0,38.8,0,49.5 M1826.4,476.3
		c0,10.2,0,20.4,0,49.5 M1826.4,525.8c0,16.5-8.2,24.8-24.8,24.8 M1826.4,525.8c0,16.5-8.2,24.8-24.8,24.8 M1801.6,550.5
		c-233.3,0-466.6,0-668,0 M1801.6,550.5c-243,0-486.1,0-668,0 M1133.6,550.5c-16.5,0-24.8-8.2-24.8-24.8 M1133.6,550.5
		c-16.5,0-24.8-8.2-24.8-24.8 M1108.8,525.8c0-12.8,0-25.5,0-49.5 M1108.8,525.8c0-14.8,0-29.5,0-49.5 M1108.8,476.3
		c0-16.5,8.2-24.8,24.8-24.8 M1108.8,476.3c0-16.5,8.2-24.8,24.8-24.8"/>
</g>
<g transform="translate(568.3769682763128 230.75939558594632) rotate(0 105.6298828125 11.5)">
	<text transform="matrix(1 0 0 1 1139.6318 511.1459)" class="st3 st4 st5">Send Updated Job Post</text>
</g>
<g>
	<g transform="translate(928.8287274780643 277.6116727736551) rotate(0 -245.697265625 -1.3818937669925617)">
		<path class="st2" d="M1857.7,555.2c-245.7-1.4-1228.5-6.9-1474.2-8.3 M1857.7,555.2c-245.7-1.4-1228.5-6.9-1474.2-8.3"/>
	</g>
	<g transform="translate(928.8287274780643 277.6116727736551) rotate(0 -245.697265625 -1.3818937669925617)">
		<path class="st2" d="M468.2,516.6c-31.7,11.3-63.4,22.7-84.7,30.3 M468.2,516.6c-26.5,9.5-52.9,19-84.7,30.3"/>
	</g>
	<g transform="translate(928.8287274780643 277.6116727736551) rotate(0 -245.697265625 -1.3818937669925617)">
		<path class="st2" d="M467.9,578.2c-31.6-11.7-63.1-23.4-84.4-31.3 M467.9,578.2c-26.4-9.8-52.7-19.5-84.4-31.3"/>
	</g>
</g>
<g transform="translate(506.89161671381294 286.3837152716537) rotate(0.5357164577847912 183.88867187499994 16.5)">
	<path class="st7" d="M1044.1,559.8c229.6,0,459.2,0,1053.8,0c16.5,0,24.8,8.2,24.8,24.8c0,16.2,0,32.3,0,49.5
		c0,16.5-8.2,24.8-24.8,24.8c-361.1,0-722.2,0-1053.8,0c-16.5,0-24.7-8.2-24.7-24.8c0-11.4,0-22.7,0-49.5
		C1019.4,568.1,1027.6,559.8,1044.1,559.8"/>
	<path class="st8" d="M1044.1,559.8c376.3,0,752.7,0,1053.8,0 M1044.1,559.8c298.8,0,597.5,0,1053.8,0 M2098,559.8
		c16.5,0,24.8,8.2,24.8,24.8 M2098,559.8c16.5,0,24.8,8.2,24.8,24.8 M2122.7,584.6c0,11.7,0,23.5,0,49.5 M2122.7,584.6
		c0,18.8,0,37.5,0,49.5 M2122.7,634.1c0,16.5-8.2,24.8-24.8,24.8 M2122.7,634.1c0,16.5-8.2,24.8-24.8,24.8 M2098,658.8
		c-380.5,0-761,0-1053.8,0 M2098,658.8c-312.7,0-625.4,0-1053.8,0 M1044.1,658.8c-16.5,0-24.7-8.2-24.7-24.8 M1044.1,658.8
		c-16.5,0-24.7-8.2-24.7-24.8 M1019.4,634.1c0-12.8,0-25.7,0-49.5 M1019.4,634.1c0-15,0-29.9,0-49.5 M1019.4,584.6
		c0-16.5,8.2-24.8,24.7-24.8 M1019.4,584.6c0-16.5,8.2-24.8,24.7-24.8"/>
</g>
<g transform="translate(517.5332182763128 291.3837152716537) rotate(0.5357164577847912 173.2470703125 11.5)">
	<text transform="matrix(1 0 0 1 1043.3787 628.7498)" class="st3 st4 st5">Detected Words,Start Index, End Index</text>
</g>
<g transform="translate(961.6845854638128 336.545341178218) rotate(0 42.97265625 28)">
	<path class="st6" d="M1965.4,673.1c45.1-2.6,100.3-7.3,173.9,0c29.1-9.2,50.9,23,42,42c-2.9,25.9,9.4,42,0,84
		c-5,20.4-3.4,49.9-42,42c-49.2,8.7-84.4,8.2-173.9,0c-33.8-6.1-31.9-6.9-42-42c-10.6-32.7-1.8-50.9,0-84
		C1926.9,689.9,1928.1,666.9,1965.4,673.1"/>
	<path class="st2" d="M1965.4,673.1c36.4,1.1,81.9,2.8,173.9,0 M1965.4,673.1c44.2-1.4,85.3-2.1,173.9,0 M2139.2,673.1
		c32.7,1.8,44.3,10.5,42,42 M2139.2,673.1c29-2.8,45.6,14,42,42 M2181.2,715.1c-2.3,21.4-5,52.8,0,84 M2181.2,715.1
		c0.9,20.9-1,48.7,0,84 M2181.2,799.1c-1.1,32.7-17.4,44.6-42,42 M2181.2,799.1c-2.1,23.1-7.2,47.1-42,42 M2139.2,841.1
		c-64.2-3.5-119.1,2.2-173.9,0 M2139.2,841.1c-54,0.9-112.6-4.4-173.9,0 M1965.4,841.1c-22.9,1.7-38.8-16.7-42-42 M1965.4,841.1
		c-22.3,4.9-35.8-9.9-42-42 M1923.4,799.1c-4.5-23.9-4.3-37.1,0-84 M1923.4,799.1c2.2-30.5,2.8-63.7,0-84 M1923.4,715.1
		c-0.8-24.5,14-36.6,42-42 M1923.4,715.1c-1.4-22.6,14.7-44.8,42-42"/>
</g>
<g transform="translate(981.0947417138128 346.1453411782179) rotate(0 23.5625 18.399999999999977)">
	<text transform="matrix(1 0 0 1 1968.4814 726.3322)" class="st3 st4 st9">Cloud</text>
	<text transform="matrix(1 0 0 1 1960.501 781.5334)" class="st3 st4 st9">Server</text>
</g>
<g transform="translate(331.9697417138128 327.533622428218) rotate(0 42.97265625 28)">
	<path class="st1" d="M705.9,655.1c47.1-11,77.6-6.2,173.8,0c35.1-2.8,47.2,13,42,42c9.8,32.3-1.7,64,0,84c-8.2,20-21.4,43.2-42,42
		c-49.1-1.5-112.2-6.2-173.8,0c-31.3-10-37.9-3.8-42-42c4.3-32.4-7.9-67.9,0-84C672.8,667.4,669.5,652.1,705.9,655.1"/>
	<path class="st2" d="M705.9,655.1c41.2-2.4,79.9,4.9,173.8,0 M705.9,655.1c61.5,0.5,121.8,0.2,173.8,0 M879.8,655.1
		c28.4,0.8,43.9,12,42,42 M879.8,655.1c21.6,1.1,41,7.5,42,42 M921.8,697.1c-1.4,22.6-0.9,56.8,0,84 M921.8,697.1
		c-1,28.9-0.2,62.9,0,84 M921.8,781.1c5.1,29.3-18.2,42.2-42,42 M921.8,781.1c5.7,21.9-10.6,43.6-42,42 M879.8,823.1
		c-62.8,5.4-133.4,0.4-173.8,0 M879.8,823.1c-64.3,2.6-128.8,0.1-173.8,0 M705.9,823.1c-25.1,5-41.9-9.5-42-42 M705.9,823.1
		c-31.1,5.9-36.5-13.3-42-42 M663.9,781.1c-1.2-24.2-2.2-57.7,0-84 M663.9,781.1c1-17,1.2-35.2,0-84 M663.9,697.1
		c-5.8-31.7,14.9-42.4,42-42 M663.9,697.1c6.4-29.2,19.6-48.7,42-42"/>
</g>
<g transform="translate(345.6025542138128 337.1336224282179) rotate(0 29.33984375 18.399999999999977)">
	<text transform="matrix(1 0 0 1 733.8506 728.9019)" class="st3 st4 st9">Web</text>
	<text transform="matrix(1 0 0 1 694.7568 784.103)" class="st3 st4 st9">Browser</text>
</g>
<g transform="translate(938.6001110137373 411.3285534991621) rotate(0 65.515625 62.576171875)">
	<path class="st10" d="M1971.1,822.7c51.3,3.8,125.2,3.9,205.3,0c63.7,8.6,101.9,23.4,93.9,93.9c-5.6,57.9,4.6,132.2,0,187.7
		c-6.7,60.2-33.4,91.2-93.9,93.9c-60.6,2.7-121.1-0.3-205.3,0c-59.1,5.2-102.6-41.2-93.9-93.9c-7.3-64.4,8.6-142.3,0-187.7
		C1871.1,855.8,1899,818.5,1971.1,822.7"/>
	<path class="st2" d="M1971.1,822.7c75.7,7.3,158.2,4.1,205.3,0 M1971.1,822.7c61.4-2.1,121.3-1,205.3,0 M2176.4,822.7
		c62.8-1.2,95.7,26.2,93.9,93.9 M2176.4,822.7c57.2,0.7,92.2,36,93.9,93.9 M2270.3,916.5c-0.2,40,2.8,84.4,0,187.7 M2270.3,916.5
		c2.8,62.9-0.4,123.4,0,187.7 M2270.3,1104.2c-4.2,56.9-36.8,92.1-93.9,93.9 M2270.3,1104.2c2.2,59.4-36.1,90.7-93.9,93.9
		 M2176.4,1198.1c-48.1-1.7-92,2.6-205.3,0 M2176.4,1198.1c-54-1.3-113.8,1.9-205.3,0 M1971.1,1198.1c-61.5,1.2-89.2-32-93.9-93.9
		 M1971.1,1198.1c-60.6-1.3-99.9-24.4-93.9-93.9 M1877.2,1104.2c0.4-46.8,5.5-84.3,0-187.7 M1877.2,1104.2
		c-0.2-46.5,3.2-91.2,0-187.7 M1877.2,916.5c3.4-59.9,31.5-88.7,93.9-93.9 M1877.2,916.5c0.4-59.4,32-98.4,93.9-93.9"/>
</g>
<g transform="translate(961.3081188262373 462.4047253741621) rotate(0 42.8076171875 11.5)">
	<text transform="matrix(1 0 0 1 1928.2013 974.2881)" class="st3 st4 st5">Database</text>
</g>
<g transform="translate(962.3969860137373 535.7777268571401) rotate(0 42.97265625 28)">
	<path class="st10" d="M1966.8,1071.6c55.1,8.2,116-8.3,173.9,0c32.1,1.6,41.2,7.9,42,42c-6.1,18.4-1.5,39.2,0,84
		c-0.8,33.6-5.6,41.6-42,42c-48.4,4.3-112.4-10.8-173.9,0c-17.8,4.7-37.9-19.9-42-42c-7.6-30.9-10.9-69.6,0-84
		C1921.3,1082.5,1940.7,1077.3,1966.8,1071.6"/>
	<path class="st2" d="M1966.8,1071.6c69.1-1.9,141.8,0.7,173.9,0 M1966.8,1071.6c46.3-0.6,93.4-2.5,173.9,0 M2140.6,1071.6
		c23.3,0.6,40.5,18.1,42,42 M2140.6,1071.6c22.8-5.5,37.2,15.4,42,42 M2182.6,1113.6c2.3,22-4.4,50,0,84 M2182.6,1113.6
		c-2.2,25.8-2.9,56.5,0,84 M2182.6,1197.6c1.9,25.3-18.2,39.2-42,42 M2182.6,1197.6c-4.9,29.6-11.2,40.7-42,42 M2140.6,1239.6
		c-46.1,4-88.9,5.7-173.9,0 M2140.6,1239.6c-43.3,1.6-85.2,0.6-173.9,0 M1966.8,1239.6c-26.2-1.1-47.2-8-42-42 M1966.8,1239.6
		c-32.5-4.5-38.4-14.9-42-42 M1924.8,1197.6c-4.4-26.4,3.9-46.7,0-84 M1924.8,1197.6c1.2-18.1-0.4-36.2,0-84 M1924.8,1113.6
		c0.4-25.2,14.6-45.9,42-42 M1924.8,1113.6c-0.7-28.1,9-47.2,42-42"/>
</g>
<g transform="translate(974.2368297637373 554.5777268571403) rotate(0 31.1328125 9.200000000000045)">
	<text transform="matrix(1 0 0 1 1946.2612 1136.7554)" class="st3 st4 st9">Backend</text>
</g>
<g>
	<g transform="translate(413.7475024334934 383.2952037395901) rotate(0 261.86182516736676 63.463086115298324)">
		<path class="st2" d="M733.8,768.5c2.2,75.4,4.4,150.8,10.6,363.8 M733.8,768.5c2.7,93.9,5.4,187.8,10.6,363.8 M744.3,1132.3
			c475.4,2.5,950.8,5,1654.1,8.6 M744.3,1132.3c597.2,3.1,1194.5,6.2,1654.1,8.6"/>
	</g>
	<g transform="translate(413.7475024334934 383.2952037395901) rotate(0 261.86182516736676 63.463086115298324)">
		<path class="st2" d="M2308.7,1170.5c18.6-6.2,37.2-12.3,89.8-29.6 M2308.7,1170.5c23.2-7.7,46.3-15.3,89.8-29.6"/>
	</g>
	<g transform="translate(413.7475024334934 383.2952037395901) rotate(0 261.86182516736676 63.463086115298324)">
		<path class="st2" d="M2309,1110.3c18.5,6.3,37.1,12.7,89.4,30.6 M2309,1110.3c23.1,7.9,46.2,15.8,89.4,30.6"/>
	</g>
</g>
<g>
	<g transform="translate(936.4640029486142 517.6189237478295) rotate(0 -267.4057798455389 -65.65435559552407)">
		<path class="st2" d="M1872.9,1035.2c-447-1.6-894-3.3-1697.6-6.2 M1872.9,1035.2c-523.5-1.9-1047-3.8-1697.6-6.2 M175.3,1029
			c0.5-139.8,1-279.5,1.4-389.5 M175.3,1029c0.4-124.5,0.9-249,1.4-389.5"/>
	</g>
	<g transform="translate(936.4640029486142 517.6189237478295) rotate(0 -267.4057798455389 -65.65435559552407)">
		<path class="st2" d="M209,724.6c-8.5-22.4-17-44.8-32.2-85.1 M209,724.6c-9.9-26.3-19.9-52.5-32.2-85.1"/>
	</g>
	<g transform="translate(936.4640029486142 517.6189237478295) rotate(0 -267.4057798455389 -65.65435559552407)">
		<path class="st2" d="M143.9,724.4c8.7-22.4,17.3-44.7,32.9-84.9 M143.9,724.4c10.1-26.2,20.3-52.4,32.9-84.9"/>
	</g>
</g>
<g transform="translate(569.8795966344679 527.830494342676) rotate(0.4236693020179442 105.21504452120519 14.200000000000045)">
	<path class="st7" d="M1165.7,1030.1c146.7,0,293.3,0,588.7,0c14.2,0,21.3,7.1,21.3,21.3c0,10.4,0,20.8,0,42.6
		c0,14.2-7.1,21.3-21.3,21.3c-230.8,0-461.7,0-588.7,0c-14.2,0-21.3-7.1-21.3-21.3c0-14.2,0-28.5,0-42.6
		C1144.4,1037.2,1151.5,1030.1,1165.7,1030.1"/>
	<path class="st8" d="M1165.7,1030.1c213.2,0,426.4,0,588.7,0 M1165.7,1030.1c210.8,0,421.5,0,588.7,0 M1754.4,1030.1
		c14.2,0,21.3,7.1,21.3,21.3 M1754.4,1030.1c14.2,0,21.3,7.1,21.3,21.3 M1775.7,1051.4c0,11.9,0,23.9,0,42.6 M1775.7,1051.4
		c0,9.2,0,18.5,0,42.6 M1775.7,1094c0,14.2-7.1,21.3-21.3,21.3 M1775.7,1094c0,14.2-7.1,21.3-21.3,21.3 M1754.4,1115.3
		c-226.7,0-453.4,0-588.7,0 M1754.4,1115.3c-173.3,0-346.6,0-588.7,0 M1165.7,1115.3c-14.2,0-21.3-7.1-21.3-21.3 M1165.7,1115.3
		c-14.2,0-21.3-7.1-21.3-21.3 M1144.4,1094c0-14.2,0-28.3,0-42.6 M1144.4,1094c0-16.9,0-33.8,0-42.6 M1144.4,1051.4
		c0-14.2,7.1-21.3,21.3-21.3 M1144.4,1051.4c0-14.2,7.1-21.3,21.3-21.3"/>
</g>
<g transform="translate(623.0672974056731 532.830494342676) rotate(0.4236693020179442 52.02734375 9.200000000000045)">
	<text transform="matrix(1 0 0 1 1254.3862 1092.5007)" class="st3 st4 st9">Initial Job Post</text>
</g>
<g transform="translate(570.809773733039 471.2267065464878) rotate(0.03317111363062605 105.21504452120519 15.218227330984178)">
	<path class="st7" d="M1165,941.7c219,0,438.1,0,585.6,0c15.2,0,22.8,7.6,22.8,22.8c0,10.7,0,21.5,0,45.7c0,15.2-7.6,22.8-22.8,22.8
		c-126.8,0-253.6,0-585.6,0c-15.2,0-22.8-7.6-22.8-22.8c0-10.4,0-20.9,0-45.7C1142.2,949.3,1149.8,941.7,1165,941.7"/>
	<path class="st8" d="M1165,941.7c230.6,0,461.2,0,585.6,0 M1165,941.7c176.5,0,353,0,585.6,0 M1750.6,941.7
		c15.2,0,22.8,7.6,22.8,22.8 M1750.6,941.7c15.2,0,22.8,7.6,22.8,22.8 M1773.5,964.5c0,18,0,35.9,0,45.7 M1773.5,964.5
		c0,14.2,0,28.3,0,45.7 M1773.5,1010.2c0,15.2-7.6,22.8-22.8,22.8 M1773.5,1010.2c0,15.2-7.6,22.8-22.8,22.8 M1750.6,1033
		c-202.1,0-404.3,0-585.6,0 M1750.6,1033c-143.9,0-287.9,0-585.6,0 M1165,1033c-15.2,0-22.8-7.6-22.8-22.8 M1165,1033
		c-15.2,0-22.8-7.6-22.8-22.8 M1142.2,1010.2c0-9.5,0-18.9,0-45.7 M1142.2,1010.2c0-18.1,0-36.2,0-45.7 M1142.2,964.5
		c0-15.2,7.6-22.8,22.8-22.8 M1142.2,964.5c0-15.2,7.6-22.8,22.8-22.8"/>
</g>
<g transform="translate(591.5209120042442 477.244933877472) rotate(0.03317111363062605 84.50390625 9.200000000000045)">
	<text transform="matrix(1 0 0 1 1178.9501 1004.1083)" class="st3 st4 st9">Send Updated Job Post</text>
</g>
<g transform="translate(10 240.10418199904234) rotate(0 97.142578125 23.5)">
	<path class="st1" d="M55.2,480.2c186.8,0,373.7,0,512.4,0c23.5,0,35.2,11.8,35.2,35.2c0,15.9,0,31.9,0,70.5
		c0,23.5-11.8,35.2-35.2,35.2c-111.1,0-222.1,0-512.4,0C31.8,621.2,20,609.4,20,586c0-18.8,0-37.6,0-70.5
		C20,492,31.8,480.2,55.2,480.2"/>
	<path class="st2" d="M55.2,480.2c173.6,0,347.2,0,512.4,0 M55.2,480.2c181.2,0,362.4,0,512.4,0 M567.6,480.2
		c23.5,0,35.2,11.8,35.2,35.2 M567.6,480.2c23.5,0,35.2,11.8,35.2,35.2 M602.9,515.5c0,26.1,0,52.3,0,70.5 M602.9,515.5
		c0,18.8,0,37.7,0,70.5 M602.9,586c0,23.5-11.8,35.2-35.2,35.2 M602.9,586c0,23.5-11.8,35.2-35.2,35.2 M567.6,621.2
		c-103.4,0-206.8,0-512.4,0 M567.6,621.2c-173.9,0-347.7,0-512.4,0 M55.2,621.2C31.8,621.2,20,609.4,20,586 M55.2,621.2
		C31.8,621.2,20,609.4,20,586 M20,586c0-14.4,0-28.9,0-70.5 M20,586c0-14.5,0-29,0-70.5 M20,515.5c0-23.5,11.8-35.2,35.2-35.2
		 M20,515.5c0-23.5,11.8-35.2,35.2-35.2"/>
</g>
<g transform="translate(16.576171875 245.20418199904225) rotate(0 90.56640625 18.399999999999977)">
	<text transform="matrix(1 0 0 1 129.874 538.498)" class="st3 st4 st9">Render Job Post</text>
	<text transform="matrix(1 0 0 1 36.9443 593.6973)" class="st3 st4 st9">Highlight Detected Words</text>
</g>
<g>
	<g transform="translate(426.6864129180881 207.87972319910727) rotate(0 254.4770350529521 -75.26898429011703)">
		<path class="st2" d="M853.4,415.8C855,252.4,856.6,89,857.7-27 M853.4,415.8c1-105.9,2.1-211.9,4.3-442.8 M857.7-27
			c375.3-2.2,750.6-4.3,1522.5-8.8 M857.7-27c351.9-2,703.7-4.1,1522.5-8.8"/>
	</g>
	<g transform="translate(426.6864129180881 207.87972319910727) rotate(0 254.4770350529521 -75.26898429011703)">
		<path class="st2" d="M2295.8-4.6c31.1-11.6,62.3-23.1,84.4-31.3 M2295.8-4.6c20.2-7.5,40.4-15,84.4-31.3"/>
	</g>
	<g transform="translate(426.6864129180881 207.87972319910727) rotate(0 254.4770350529521 -75.26898429011703)">
		<path class="st2" d="M2295.5-66.1c31.3,11.2,62.5,22.4,84.8,30.3 M2295.5-66.1c20.3,7.2,40.6,14.5,84.8,30.3"/>
	</g>
</g>
<g transform="translate(937.9944662376566 10) rotate(0 64.44140625 63.33984375)">
	<path class="st11" d="M1971,20c65.2,1.8,129.7,1.3,196.6,0c68.8,4,104.3,24.2,95,95c2.1,57.3-1.6,132.1,0,190
		c-2.6,54.7-24.7,88.5-95,95c-62.8,6.3-121.9-4-196.6,0c-70.8,4.1-85.8-28.4-95-95c-7.6-79.8-6.5-149.6,0-190
		C1867,53.8,1907.1,19.9,1971,20"/>
	<path class="st2" d="M1971,20c42.5-0.9,74.6,4.2,196.6,0 M1971,20c56.9,3.2,114.2,2.4,196.6,0 M2167.6,20c65.5,4.6,92.2,31.1,95,95
		 M2167.6,20c68.2-6.6,101,28.7,95,95 M2262.6,115c-4.2,36.9,2.2,90.8,0,190 M2262.6,115c2.8,54.1-0.7,114.8,0,190 M2262.6,305
		c4.5,68-35.9,93.8-95,95 M2262.6,305c-1.9,60.6-31.9,91.7-95,95 M2167.6,400c-53.2,4-99.9,2.1-196.6,0 M2167.6,400
		c-38.4,2.1-81.6,1.9-196.6,0 M1971,400c-58.4,3-95.8-26.5-95-95 M1971,400c-61.9,2.2-96.8-25-95-95 M1876,305
		c-2.6-46.6-6.5-90.1,0-190 M1876,305c1-53.3,2-110.7,0-190 M1876,115c-2.6-65.1,33.4-99.5,95-95 M1876,115
		c-3.4-68.4,33.9-98.3,95-95"/>
</g>
<g transform="translate(960.7561849876566 61.83984375) rotate(0 41.6796875 11.5)">
	<text transform="matrix(1 0 0 1 1919.4362 184.3335)" class="st3 st4 st5">ChatGPT</text>
</g>
<g transform="translate(962.6384808754498 136.34375) rotate(0 42.97265625 28)">
	<path class="st11" d="M1967.3,272.7c64.2,3,126.9-8.5,173.8,0c33.4-10.7,36.5,19.5,42,42c-2.4,9.4,7.2,29.4,0,84
		c-1.6,23.2-11.6,35.3-42,42c-68.5,2.8-112.9,1.9-173.8,0c-20.5-10-43.8-24.8-42-42c-7.6-15.6,0.8-35.5,0-84
		C1917,283,1939.4,268.2,1967.3,272.7"/>
	<path class="st2" d="M1967.3,272.7c46.7,3.1,92.9-0.7,173.8,0 M1967.3,272.7c68.2,1.3,133-1.3,173.8,0 M2141.1,272.7
		c32.2-5.8,47.2,11.4,42,42 M2141.1,272.7c22.7-5.9,37.3,11,42,42 M2183.1,314.7c0.5,18.6-4.8,39.5,0,84 M2183.1,314.7
		c1.9,19.2-2.5,33.1,0,84 M2183.1,398.7c-1.7,25.6-14.2,39.2-42,42 M2183.1,398.7c-3.5,26.5-17.7,37.3-42,42 M2141.1,440.7
		c-72.4-2.4-134.6,5.5-173.8,0 M2141.1,440.7c-63.3,2.7-131.9,3.8-173.8,0 M1967.3,440.7c-26.8,1.9-43.5-8.2-42-42 M1967.3,440.7
		c-32.3,2.9-48.8-16-42-42 M1925.3,398.7c-0.2-25,3.7-45.6,0-84 M1925.3,398.7c-1.7-27.9,0.5-56.2,0-84 M1925.3,314.7
		c-2.9-32.4,15.9-44.9,42-42 M1925.3,314.7c0.7-28.5,18.5-39.3,42-42"/>
</g>
<g transform="translate(992.7166058754498 155.14374999999995) rotate(0 12.89453125 9.200000000000045)">
	<text transform="matrix(1 0 0 1 1986.1359 353.9582)" class="st3 st4 st9">API</text>
</g>
<g>
	<g transform="translate(934.8419978127047 68.88711139522297) rotate(0 -249.1347354327113 74.99056040776475)">
		<path class="st2" d="M1869.7,137.8c-367.9,0.8-735.8,1.6-1491.3,3.4 M1869.7,137.8c-469.3,1.1-938.6,2.1-1491.3,3.4 M378.4,141.1
			c-1.1,140-2.2,279.9-3.5,446.6 M378.4,141.1c-1.4,172.8-2.7,345.6-3.5,446.6"/>
	</g>
	<g transform="translate(934.8419978127047 68.88711139522297) rotate(0 -249.1347354327113 74.99056040776475)">
		<path class="st2" d="M344.8,502.9c7.4,20.9,14.9,41.9,30.1,84.8 M344.8,502.9c9.5,26.7,19,53.4,30.1,84.8"/>
	</g>
	<g transform="translate(934.8419978127047 68.88711139522297) rotate(0 -249.1347354327113 74.99056040776475)">
		<path class="st2" d="M406.3,503.4c-7.7,20.8-15.5,41.6-31.4,84.3 M406.3,503.4c-9.9,26.5-19.8,53.1-31.4,84.3"/>
	</g>
</g>
<g transform="translate(518.3531269082927 17.421795943000234) rotate(0.09705953650949327 167.0833575117304 16.5)">
	<path class="st7" d="M1061.6,32.5c216.2,0,432.4,0,953,0c16.5,0,24.8,8.3,24.8,24.8c0,10,0,20,0,49.5c0,16.5-8.2,24.8-24.8,24.8
		c-265.8,0-531.6,0-953,0c-16.5,0-24.8-8.3-24.8-24.8c0-11.7,0-23.4,0-49.5C1036.8,40.8,1045.1,32.5,1061.6,32.5"/>
	<path class="st8" d="M1061.6,32.5c380.2,0,760.4,0,953,0 M1061.6,32.5c246.5,0,492.9,0,953,0 M2014.6,32.5
		c16.5,0,24.8,8.3,24.8,24.8 M2014.6,32.5c16.5,0,24.8,8.3,24.8,24.8 M2039.3,57.3c0,10.7,0,21.3,0,49.5 M2039.3,57.3
		c0,12.2,0,24.5,0,49.5 M2039.3,106.8c0,16.5-8.2,24.8-24.8,24.8 M2039.3,106.8c0,16.5-8.2,24.8-24.8,24.8 M2014.6,131.5
		c-293.5,0-587,0-953,0 M2014.6,131.5c-198.9,0-397.8,0-953,0 M1061.6,131.5c-16.5,0-24.8-8.3-24.8-24.8 M1061.6,131.5
		c-16.5,0-24.8-8.3-24.8-24.8 M1036.8,106.8c0-14.5,0-28.9,0-49.5 M1036.8,106.8c0-12.5,0-25.1,0-49.5 M1036.8,57.3
		c0-16.5,8.2-24.8,24.8-24.8 M1036.8,57.3c0-16.5,8.2-24.8,24.8-24.8"/>
</g>
<g transform="translate(524.235312545023 22.421795943000234) rotate(0.09705953650949327 161.201171875 11.5)">
	<text transform="matrix(1 0 0 1 1043.2925 101.0909)" class="st3 st4 st5">Request Job Description Generation</text>
</g>
<g transform="translate(578.4252103536022 73.20118553744919) rotate(359.6636605222606 103.3098110389351 16.5)">
	<path class="st7" d="M1180.5,154.4c200,0,400.1,0,570.4,0c16.5,0,24.8,8.2,24.8,24.7c0,10.1,0,20.2,0,49.5
		c0,16.5-8.2,24.8-24.8,24.8c-196.1,0-392.3,0-570.4,0c-16.5,0-24.8-8.2-24.8-24.7c0-13.3,0-26.6,0-49.5
		C1155.8,162.7,1164,154.4,1180.5,154.4"/>
	<path class="st8" d="M1180.5,154.4c177.7,0,355.4,0,570.4,0 M1180.5,154.4c198.7,0,397.4,0,570.4,0 M1750.9,154.4
		c16.5,0,24.8,8.2,24.8,24.7 M1750.9,154.4c16.5,0,24.8,8.2,24.8,24.7 M1775.6,179.2c0,10.6,0,21.2,0,49.5 M1775.6,179.2
		c0,10.3,0,20.6,0,49.5 M1775.6,228.7c0,16.5-8.2,24.8-24.8,24.8 M1775.6,228.7c0,16.5-8.2,24.8-24.8,24.8 M1750.9,253.4
		c-143.6,0-287.3,0-570.4,0 M1750.9,253.4c-119.8,0-239.7,0-570.4,0 M1180.5,253.4c-16.5,0-24.8-8.2-24.8-24.7 M1180.5,253.4
		c-16.5,0-24.8-8.2-24.8-24.7 M1155.8,228.7c0-17,0-34,0-49.5 M1155.8,228.7c0-15.5,0-31,0-49.5 M1155.8,179.2
		c0-16.5,8.2-24.8,24.8-24.8 M1155.8,179.2c0-16.5,8.2-24.8,24.8-24.8"/>
</g>
<g transform="translate(590.0309198300373 78.20118553744919) rotate(359.6636605222606 91.7041015625 11.5)">
	<text transform="matrix(1 0 0 1 1178.6351 223.8551)" class="st3 st4 st5">New Job Description</text>
</g>
<g>
	<g transform="translate(311.19672163780433 318.8458637872693) rotate(0 -52.25945593566664 -48.425851250845426)">
		<path class="st2" d="M622.4,637.7c-52.3-25-313.3-101.7-313.6-150.1s259.8-117,311.8-140.4 M622.4,637.7
			c-52.3-25-313.3-101.7-313.6-150.1s259.8-117,311.8-140.4"/>
	</g>
	<g transform="translate(311.19672163780433 318.8458637872693) rotate(0 -52.25945593566664 -48.425851250845426)">
		<path class="st2" d="M550.9,404.1c14.3-11.7,28.6-23.4,69.7-56.9 M550.9,404.1c18.2-14.8,36.3-29.6,69.7-56.9"/>
	</g>
	<g transform="translate(311.19672163780433 318.8458637872693) rotate(0 -52.25945593566664 -48.425851250845426)">
		<path class="st2" d="M530.7,345.9c18.5,0.3,36.9,0.5,90,1.2 M530.7,345.9c23.4,0.3,46.9,0.6,90,1.2"/>
	</g>
</g>
</svg>
